<svg xmlns="http://www.w3.org/2000/svg" width="37.675" height="37.675" viewBox="0 0 37.675 37.675">
  <path id="Icon_awesome-instagram" data-name="Icon awesome-instagram" d="M17.832,1.238c3.191,0,6.031.049,7.412.127a11.689,11.689,0,0,1,8.127,3.173,11.616,11.616,0,0,1,3.173,8.13c.169,2.982.169,11.834,0,14.815a11.7,11.7,0,0,1-3.173,8.13,11.612,11.612,0,0,1-8.129,3.173c-1.382.078-4.22.127-7.41.127s-6.031-.049-7.412-.127A11.71,11.71,0,0,1,2.3,35.614,11.617,11.617,0,0,1-.879,27.482c-.169-2.984-.169-11.84,0-14.823A11.675,11.675,0,0,1,2.3,4.528a11.661,11.661,0,0,1,8.127-3.164C11.8,1.286,14.642,1.238,17.832,1.238Zm0,35.675c3.159,0,5.956-.047,7.3-.124h.009c3.115-.148,5.152-.922,6.812-2.589s2.434-3.7,2.591-6.819v-.007c.166-2.933.166-11.664,0-14.6v-.009c-.147-3.115-.921-5.153-2.588-6.814s-3.7-2.435-6.818-2.591h-.007c-1.345-.076-4.143-.124-7.3-.124s-5.956.047-7.3.124h-.009c-3.108.148-5.146.92-6.815,2.583s-2.431,3.69-2.588,6.817v.007c-.167,2.935-.167,11.671,0,14.606v.009c.148,3.115.921,5.153,2.588,6.814s3.705,2.435,6.818,2.591h.007C11.876,36.865,14.674,36.913,17.832,36.913ZM14.683,4.43c.674,0,1.322.007,1.893.012.461,0,.9.009,1.26.009s.783,0,1.234-.008c.558-.005,1.19-.011,1.848-.011,2.68,0,5.988.092,7.8.806a7.018,7.018,0,0,1,3.952,3.949c.872,2.2.827,6.67.8,9.627,0,.461-.009.9-.009,1.261s0,.8.009,1.261c.03,2.96.075,7.434-.8,9.625a7.016,7.016,0,0,1-3.947,3.95c-1.413.56-3.8.81-7.733.81-.674,0-1.322-.007-1.893-.012-.461,0-.9-.009-1.26-.009s-.783,0-1.234.008c-.558.005-1.19.011-1.848.011-2.68,0-5.988-.092-7.8-.806A7.018,7.018,0,0,1,3,30.963c-.872-2.2-.827-6.67-.8-9.627,0-.461.009-.9.009-1.261s0-.784-.008-1.235c-.028-2.968-.071-7.453.794-9.648A7.018,7.018,0,0,1,6.951,5.24C8.363,4.68,10.747,4.43,14.683,4.43Zm3.153,2.021c-.374,0-.815,0-1.281-.009-.566-.006-1.209-.012-1.873-.012-1.313,0-5.309,0-6.992.667a5.032,5.032,0,0,0-2.83,2.831c-.722,1.83-.679,6.251-.654,8.892,0,.456.008.887.008,1.254s0,.815-.009,1.281c-.027,2.631-.071,7.034.655,8.866a5.032,5.032,0,0,0,2.831,2.831c1.686.665,5.732.665,7.061.665.649,0,1.276-.006,1.829-.011.456,0,.887-.009,1.254-.009s.815,0,1.281.009c.566.006,1.209.012,1.873.012,1.313,0,5.309,0,6.992-.667a5.032,5.032,0,0,0,2.83-2.831c.726-1.824.681-6.232.655-8.865,0-.466-.009-.907-.009-1.281s0-.815.009-1.281c.027-2.631.071-7.034-.655-8.866A5.032,5.032,0,0,0,27.98,7.1c-1.686-.665-5.732-.665-7.061-.665-.649,0-1.276.006-1.829.011C18.634,6.448,18.2,6.452,17.836,6.452Zm9.519.969a3.133,3.133,0,1,1-3.133,3.133A3.137,3.137,0,0,1,27.355,7.421Zm0,4.267a1.133,1.133,0,1,0-1.133-1.133A1.134,1.134,0,0,0,27.355,11.688ZM17.836,9.929A10.131,10.131,0,1,1,10.659,12.9,10.08,10.08,0,0,1,17.836,9.929Zm0,18.293a8.147,8.147,0,1,0-8.145-8.147A8.155,8.155,0,0,0,17.836,28.222Zm0-15.093a6.946,6.946,0,1,1-6.945,6.946A6.954,6.954,0,0,1,17.836,13.129Zm0,11.893a4.946,4.946,0,1,0-4.945-4.946A4.951,4.951,0,0,0,17.836,25.022Z" transform="translate(1.005 -1.238)" fill="#e9e9e9"/>
</svg>
