<svg xmlns="http://www.w3.org/2000/svg" width="48.378" height="37.675" viewBox="0 0 48.378 37.675">
  <path id="Icon_material-mail-outline" data-name="Icon material-mail-outline" d="M7.638,5h37.1a5.557,5.557,0,0,1,5.638,5.459V37.216a5.557,5.557,0,0,1-5.638,5.459H7.638A5.557,5.557,0,0,1,2,37.216l.023-26.757A5.545,5.545,0,0,1,7.638,5ZM48.223,9.459A3.626,3.626,0,0,0,44.74,7H7.638A3.6,3.6,0,0,0,4.177,9.459ZM44.74,40.675a3.556,3.556,0,0,0,3.638-3.459V10.459a3.292,3.292,0,0,0-.136-.938L26.189,22.774,4.155,9.533a3.313,3.313,0,0,0-.132.926L4,37.216a3.556,3.556,0,0,0,3.638,3.458ZM41.135,11.459H11.243l14.946,8.982Zm-34.5,1.692L26.189,24.9,45.74,13.151V38.216H6.638ZM26.189,27.234,8.638,16.686V36.216h35.1V16.686Z" transform="translate(-2 -5)" fill="#e9e9e9"/>
</svg>
